<svg xmlns="http://www.w3.org/2000/svg" width="1200" height="470" viewBox="0 0 1200 470" role="img" aria-label="Side B — vocals, guitar and music production">
  <defs>
    <linearGradient id="bg" x1="0" y1="0" x2="1" y2="1"><stop stop-color="#090806"/><stop offset="0.58" stop-color="#110d0a"/><stop offset="1" stop-color="#070709"/></linearGradient>
    <radialGradient id="warm" cx="50%" cy="50%" r="50%"><stop stop-color="#ff8b4a" stop-opacity="0.30"/><stop offset="1" stop-color="#ff8b4a" stop-opacity="0"/></radialGradient>
    <linearGradient id="wave" x1="0" y1="0" x2="1" y2="0"><stop stop-color="#ffca8a"/><stop offset="0.5" stop-color="#ff8b4a"/><stop offset="1" stop-color="#9b87f5"/></linearGradient>
    <pattern id="lines" width="24" height="24" patternUnits="userSpaceOnUse"><path d="M0 24L24 0" stroke="#ffffff" stroke-opacity="0.018"/></pattern>
  </defs>

  <rect width="1200" height="470" rx="30" fill="url(#bg)"/>
  <rect width="1200" height="470" rx="30" fill="url(#lines)"/>
  <rect x="1" y="1" width="1198" height="468" rx="29" fill="none" stroke="#ffffff" stroke-opacity="0.08"/>
  <circle cx="956" cy="230" r="230" fill="url(#warm)"/>

  <text x="58" y="58" fill="#d78d5c" font-family="ui-monospace,SFMono-Regular,Menlo,Monaco,Consolas,monospace" font-size="12" letter-spacing="3">SIDE B / SOUND</text>
  <text x="1140" y="58" text-anchor="end" fill="#5d5650" font-family="ui-monospace,SFMono-Regular,Menlo,Monaco,Consolas,monospace" font-size="11" letter-spacing="2">INPUT: HUMAN</text>

  <text x="58" y="138" fill="#fbf7f3" font-family="Inter,ui-sans-serif,system-ui,sans-serif" font-size="52" font-weight="760" letter-spacing="-2">some ideas want code.</text>
  <text x="58" y="195" fill="#ffb072" font-family="Inter,ui-sans-serif,system-ui,sans-serif" font-size="52" font-weight="760" letter-spacing="-2">some want chords.</text>

  <text x="61" y="240" fill="#8f8781" font-family="Inter,ui-sans-serif,system-ui,sans-serif" font-size="16">Vocals · guitar · music production · unfinished demos at unreasonable hours.</text>

  <g transform="translate(58 286)">
    <rect x="0" y="0" width="170" height="72" rx="18" fill="#ffffff" fill-opacity="0.035" stroke="#ffffff" stroke-opacity="0.08"/>
    <text x="20" y="29" fill="#776e68" font-family="ui-monospace,SFMono-Regular,Menlo,Monaco,Consolas,monospace" font-size="10" letter-spacing="2">01 / VOICE</text>
    <text x="20" y="53" fill="#f5f1ee" font-family="Inter,system-ui,sans-serif" font-size="17" font-weight="650">singing</text>
  </g>
  <g transform="translate(244 286)">
    <rect x="0" y="0" width="170" height="72" rx="18" fill="#ffffff" fill-opacity="0.035" stroke="#ffffff" stroke-opacity="0.08"/>
    <text x="20" y="29" fill="#776e68" font-family="ui-monospace,SFMono-Regular,Menlo,Monaco,Consolas,monospace" font-size="10" letter-spacing="2">02 / STRINGS</text>
    <text x="20" y="53" fill="#f5f1ee" font-family="Inter,system-ui,sans-serif" font-size="17" font-weight="650">guitar</text>
  </g>
  <g transform="translate(430 286)">
    <rect x="0" y="0" width="208" height="72" rx="18" fill="#ff8b4a" fill-opacity="0.07" stroke="#ff8b4a" stroke-opacity="0.18"/>
    <text x="20" y="29" fill="#9f7155" font-family="ui-monospace,SFMono-Regular,Menlo,Monaco,Consolas,monospace" font-size="10" letter-spacing="2">03 / PRODUCTION</text>
    <text x="20" y="53" fill="#ffd7b9" font-family="Inter,system-ui,sans-serif" font-size="17" font-weight="650">recording + mixing</text>
  </g>

  <g transform="translate(727 112)">
    <circle cx="188" cy="126" r="116" fill="#090806" stroke="#ffffff" stroke-opacity="0.08"/>
    <circle cx="188" cy="126" r="89" fill="none" stroke="#ff8b4a" stroke-opacity="0.28"/>
    <circle cx="188" cy="126" r="58" fill="none" stroke="#ffffff" stroke-opacity="0.08"/>
    <circle cx="188" cy="126" r="13" fill="#ffb071"/>
    <circle cx="188" cy="126" r="4" fill="#140e0a"/>
    <path d="M64 126H312" stroke="#ffffff" stroke-opacity="0.045"/>
    <path d="M188 2V250" stroke="#ffffff" stroke-opacity="0.045"/>

    <g transform="translate(0 274)">
      <line x1="0" y1="38" x2="410" y2="38" stroke="#ffffff" stroke-opacity="0.07"/>
      <path d="M0 38L10 38L18 21L26 56L34 8L42 67L50 29L58 45L66 38L74 38L82 26L90 50L98 14L106 62L114 24L122 48L130 38L138 38L146 19L154 58L162 6L170 70L178 27L186 47L194 38L202 38L210 22L218 54L226 10L234 65L242 25L250 49L258 38L266 38L274 18L282 59L290 7L298 69L306 28L314 46L322 38L330 38L338 23L346 52L354 12L362 63L370 26L378 48L386 38L410 38" fill="none" stroke="url(#wave)" stroke-width="2.4" stroke-linecap="round" stroke-linejoin="round"/>
    </g>
  </g>

  <line x1="58" y1="408" x2="1140" y2="408" stroke="#ffffff" stroke-opacity="0.07"/>
  <circle cx="67" cy="438" r="5" fill="#ff666f"/>
  <text x="84" y="442" fill="#876c5b" font-family="ui-monospace,SFMono-Regular,Menlo,Monaco,Consolas,monospace" font-size="11" letter-spacing="1.7">REC / LIVE</text>
  <text x="1140" y="442" text-anchor="end" fill="#857466" font-family="ui-monospace,SFMono-Regular,Menlo,Monaco,Consolas,monospace" font-size="11" letter-spacing="1.7">@sankalp.singss · @sankalp.musicc</text>
</svg>