<svg xmlns="http://www.w3.org/2000/svg" width="560" height="300" viewBox="0 0 560 300" role="img" aria-label="Reclaim project card">
  <defs><linearGradient id="g" x1="0" y1="0" x2="1" y2="1"><stop stop-color="#15121f"/><stop offset="1" stop-color="#0b0d12"/></linearGradient></defs>
  <rect width="560" height="300" rx="24" fill="url(#g)"/>
  <rect x="1" y="1" width="558" height="298" rx="23" fill="none" stroke="#a78bfa" stroke-opacity="0.28"/>
  <text x="34" y="45" fill="#9b8acf" font-family="ui-monospace,SFMono-Regular,Menlo,monospace" font-size="11" letter-spacing="2.2">01 / PRIVATE BUILD</text>
  <text x="34" y="105" fill="#f5f3ff" font-family="Inter,system-ui,sans-serif" font-size="38" font-weight="700">Reclaim</text>
  <text x="34" y="139" fill="#aaa5b7" font-family="Inter,system-ui,sans-serif" font-size="15">Behaviour-focused smoking cessation product.</text>
  <g transform="translate(376 134)">
    <circle cx="72" cy="18" r="66" fill="none" stroke="#a78bfa" stroke-opacity="0.22"/>
    <circle cx="72" cy="18" r="47" fill="none" stroke="#a78bfa" stroke-opacity="0.42"/>
    <circle cx="72" cy="18" r="28" fill="none" stroke="#a78bfa" stroke-opacity="0.72"/>
    <path d="M72 -50V86M4 18H140" stroke="#ffffff" stroke-opacity="0.05"/>
  </g>
  <rect x="34" y="218" width="90" height="30" rx="15" fill="#a78bfa" fill-opacity="0.10"/><text x="79" y="238" text-anchor="middle" fill="#c9bcff" font-family="ui-monospace,SFMono-Regular,Menlo,monospace" font-size="10">PRODUCT</text>
  <rect x="132" y="218" width="102" height="30" rx="15" fill="#ffffff" fill-opacity="0.035"/><text x="183" y="238" text-anchor="middle" fill="#9297a4" font-family="ui-monospace,SFMono-Regular,Menlo,monospace" font-size="10">SUPABASE</text>
  <rect x="242" y="218" width="98" height="30" rx="15" fill="#ffffff" fill-opacity="0.035"/><text x="291" y="238" text-anchor="middle" fill="#9297a4" font-family="ui-monospace,SFMono-Regular,Menlo,monospace" font-size="10">VERCEL</text>
  <text x="34" y="276" fill="#5f6471" font-family="ui-monospace,SFMono-Regular,Menlo,monospace" font-size="10" letter-spacing="1.3">CURRENT / ACTIVE</text>
</svg>