<svg xmlns="http://www.w3.org/2000/svg" width="560" height="320" viewBox="0 0 560 320" role="img" aria-label="Reclaim project card">
  <defs>
    <linearGradient id="bg" x1="0" y1="0" x2="1" y2="1"><stop stop-color="#10111a"/><stop offset="1" stop-color="#090a0f"/></linearGradient>
    <radialGradient id="glow" cx="50%" cy="50%" r="50%"><stop stop-color="#9b87f5" stop-opacity="0.34"/><stop offset="1" stop-color="#9b87f5" stop-opacity="0"/></radialGradient>
  </defs>
  <rect width="560" height="320" rx="24" fill="url(#bg)"/>
  <rect x="1" y="1" width="558" height="318" rx="23" fill="none" stroke="#ffffff" stroke-opacity="0.09"/>
  <circle cx="424" cy="127" r="128" fill="url(#glow)"/>
  <circle cx="430" cy="132" r="73" fill="none" stroke="#9b87f5" stroke-opacity="0.45"/>
  <circle cx="430" cy="132" r="42" fill="#090a0f" stroke="#ffffff" stroke-opacity="0.10"/>
  <path d="M430 76C400 87 393 111 401 132C407 148 422 158 430 172C438 157 453 148 459 132C467 111 460 87 430 76Z" fill="none" stroke="#c8bcff" stroke-width="2"/>
  <path d="M430 91V157" stroke="#c8bcff" stroke-width="2" stroke-linecap="round"/>

  <text x="30" y="40" fill="#8d81d2" font-family="ui-monospace,SFMono-Regular,Menlo,Monaco,Consolas,monospace" font-size="10" letter-spacing="2">01 / ACTIVE BUILD</text>
  <text x="30" y="102" fill="#f4f5f7" font-family="Inter,system-ui,sans-serif" font-size="34" font-weight="760" letter-spacing="-1">Reclaim</text>
  <text x="30" y="130" fill="#949aa6" font-family="Inter,system-ui,sans-serif" font-size="14">behaviour × product × software</text>
  <text x="30" y="181" fill="#6f7580" font-family="Inter,system-ui,sans-serif" font-size="13">A smoking-cessation product built around</text>
  <text x="30" y="201" fill="#6f7580" font-family="Inter,system-ui,sans-serif" font-size="13">cravings, progress, insight and behaviour.</text>

  <rect x="30" y="244" width="86" height="26" rx="13" fill="#9b87f5" fill-opacity="0.10" stroke="#9b87f5" stroke-opacity="0.20"/>
  <text x="73" y="261" text-anchor="middle" fill="#b5a9ec" font-family="ui-monospace,SFMono-Regular,Menlo,Monaco,Consolas,monospace" font-size="9">PRODUCT</text>
  <rect x="126" y="244" width="98" height="26" rx="13" fill="#ffffff" fill-opacity="0.03" stroke="#ffffff" stroke-opacity="0.08"/>
  <text x="175" y="261" text-anchor="middle" fill="#7f8591" font-family="ui-monospace,SFMono-Regular,Menlo,Monaco,Consolas,monospace" font-size="9">SUPABASE</text>
  <rect x="234" y="244" width="104" height="26" rx="13" fill="#ffffff" fill-opacity="0.03" stroke="#ffffff" stroke-opacity="0.08"/>
  <text x="286" y="261" text-anchor="middle" fill="#7f8591" font-family="ui-monospace,SFMono-Regular,Menlo,Monaco,Consolas,monospace" font-size="9">JAVASCRIPT</text>

  <circle cx="30" cy="292" r="4" fill="#83f6a7"/>
  <text x="44" y="296" fill="#69707c" font-family="ui-monospace,SFMono-Regular,Menlo,Monaco,Consolas,monospace" font-size="9" letter-spacing="1.2">LIVE PRODUCT / BUILDING ↗</text>
</svg>